<mxfile host="Electron" modified="2024-01-03T02:55:15.725Z" agent="Mozilla/5.0 (Windows NT 10.0; Win64; x64) AppleWebKit/537.36 (KHTML, like Gecko) draw.io/22.1.16 Chrome/120.0.6099.109 Electron/28.1.0 Safari/537.36" etag="y8tO7JBCwsTmoQK7YJeD" version="22.1.16" type="device">
  <diagram name="Page-1" id="3uvw_9VqznobGhK58HQF">
    <mxGraphModel dx="4175" dy="1672" grid="1" gridSize="10" guides="1" tooltips="1" connect="1" arrows="1" fold="1" page="1" pageScale="1" pageWidth="827" pageHeight="1169" math="0" shadow="0">
      <root>
        <mxCell id="0" />
        <mxCell id="1" parent="0" />
        <mxCell id="WoPcIAXv2s5pRwGK4_qz-3" value="&lt;font style=&quot;font-size: 48px;&quot;&gt;c&lt;/font&gt;" style="whiteSpace=wrap;html=1;aspect=fixed;fillColor=#97D077;" vertex="1" parent="1">
          <mxGeometry x="-390" y="230" width="60" height="60" as="geometry" />
        </mxCell>
        <mxCell id="WoPcIAXv2s5pRwGK4_qz-4" value="&lt;font style=&quot;font-size: 48px;&quot;&gt;b&lt;/font&gt;" style="whiteSpace=wrap;html=1;aspect=fixed;fillColor=#97D077;" vertex="1" parent="1">
          <mxGeometry x="-330" y="230" width="60" height="60" as="geometry" />
        </mxCell>
        <mxCell id="WoPcIAXv2s5pRwGK4_qz-2" value="&lt;font style=&quot;font-size: 48px;&quot;&gt;a&lt;/font&gt;" style="whiteSpace=wrap;html=1;aspect=fixed;fillColor=#97D077;" vertex="1" parent="1">
          <mxGeometry x="-450" y="230" width="60" height="60" as="geometry" />
        </mxCell>
        <mxCell id="WoPcIAXv2s5pRwGK4_qz-39" value="&lt;font style=&quot;font-size: 48px;&quot;&gt;c&lt;/font&gt;" style="whiteSpace=wrap;html=1;aspect=fixed;fillColor=#B5739D;" vertex="1" parent="1">
          <mxGeometry x="-210" y="230" width="60" height="60" as="geometry" />
        </mxCell>
        <mxCell id="WoPcIAXv2s5pRwGK4_qz-40" value="&lt;font style=&quot;font-size: 48px;&quot;&gt;b&lt;/font&gt;" style="whiteSpace=wrap;html=1;aspect=fixed;fillColor=#B5739D;" vertex="1" parent="1">
          <mxGeometry x="-150" y="230" width="60" height="60" as="geometry" />
        </mxCell>
        <mxCell id="WoPcIAXv2s5pRwGK4_qz-41" value="&lt;font style=&quot;font-size: 48px;&quot;&gt;a&lt;/font&gt;" style="whiteSpace=wrap;html=1;aspect=fixed;fillColor=#B5739D;" vertex="1" parent="1">
          <mxGeometry x="-270" y="230" width="60" height="60" as="geometry" />
        </mxCell>
        <mxCell id="WoPcIAXv2s5pRwGK4_qz-42" value="&lt;font style=&quot;font-size: 48px;&quot;&gt;c&lt;/font&gt;" style="whiteSpace=wrap;html=1;aspect=fixed;fillColor=#CC0000;" vertex="1" parent="1">
          <mxGeometry x="-30" y="230" width="60" height="60" as="geometry" />
        </mxCell>
        <mxCell id="WoPcIAXv2s5pRwGK4_qz-43" value="&lt;font style=&quot;font-size: 48px;&quot;&gt;b&lt;/font&gt;" style="whiteSpace=wrap;html=1;aspect=fixed;fillColor=#CC0000;" vertex="1" parent="1">
          <mxGeometry x="30" y="230" width="60" height="60" as="geometry" />
        </mxCell>
        <mxCell id="WoPcIAXv2s5pRwGK4_qz-44" value="&lt;font style=&quot;font-size: 48px;&quot;&gt;a&lt;/font&gt;" style="whiteSpace=wrap;html=1;aspect=fixed;fillColor=#CC0000;" vertex="1" parent="1">
          <mxGeometry x="-90" y="230" width="60" height="60" as="geometry" />
        </mxCell>
        <mxCell id="WoPcIAXv2s5pRwGK4_qz-45" value="&lt;font style=&quot;font-size: 48px;&quot;&gt;c&lt;/font&gt;" style="whiteSpace=wrap;html=1;aspect=fixed;fillColor=#0000FF;" vertex="1" parent="1">
          <mxGeometry x="150" y="230" width="60" height="60" as="geometry" />
        </mxCell>
        <mxCell id="WoPcIAXv2s5pRwGK4_qz-46" value="&lt;font style=&quot;font-size: 48px;&quot;&gt;b&lt;/font&gt;" style="whiteSpace=wrap;html=1;aspect=fixed;fillColor=#0000FF;" vertex="1" parent="1">
          <mxGeometry x="210" y="230" width="60" height="60" as="geometry" />
        </mxCell>
        <mxCell id="WoPcIAXv2s5pRwGK4_qz-47" value="&lt;font style=&quot;font-size: 48px;&quot;&gt;a&lt;/font&gt;" style="whiteSpace=wrap;html=1;aspect=fixed;fillColor=#0000FF;" vertex="1" parent="1">
          <mxGeometry x="90" y="230" width="60" height="60" as="geometry" />
        </mxCell>
        <mxCell id="WoPcIAXv2s5pRwGK4_qz-48" value="&lt;font style=&quot;font-size: 48px;&quot;&gt;c&lt;/font&gt;" style="whiteSpace=wrap;html=1;aspect=fixed;fillColor=#99004D;" vertex="1" parent="1">
          <mxGeometry x="330" y="230" width="60" height="60" as="geometry" />
        </mxCell>
        <mxCell id="WoPcIAXv2s5pRwGK4_qz-49" value="&lt;font style=&quot;font-size: 48px;&quot;&gt;b&lt;/font&gt;" style="whiteSpace=wrap;html=1;aspect=fixed;fillColor=#99004D;" vertex="1" parent="1">
          <mxGeometry x="390" y="230" width="60" height="60" as="geometry" />
        </mxCell>
        <mxCell id="WoPcIAXv2s5pRwGK4_qz-50" value="&lt;font style=&quot;font-size: 48px;&quot;&gt;a&lt;/font&gt;" style="whiteSpace=wrap;html=1;aspect=fixed;fillColor=#99004D;" vertex="1" parent="1">
          <mxGeometry x="270" y="230" width="60" height="60" as="geometry" />
        </mxCell>
        <mxCell id="WoPcIAXv2s5pRwGK4_qz-51" value="&lt;font style=&quot;font-size: 48px;&quot;&gt;c&lt;/font&gt;" style="whiteSpace=wrap;html=1;aspect=fixed;fillColor=#663300;" vertex="1" parent="1">
          <mxGeometry x="510" y="230" width="60" height="60" as="geometry" />
        </mxCell>
        <mxCell id="WoPcIAXv2s5pRwGK4_qz-52" value="&lt;font style=&quot;font-size: 48px;&quot;&gt;b&lt;/font&gt;" style="whiteSpace=wrap;html=1;aspect=fixed;fillColor=#663300;" vertex="1" parent="1">
          <mxGeometry x="570" y="230" width="60" height="60" as="geometry" />
        </mxCell>
        <mxCell id="WoPcIAXv2s5pRwGK4_qz-53" value="&lt;font style=&quot;font-size: 48px;&quot;&gt;a&lt;/font&gt;" style="whiteSpace=wrap;html=1;aspect=fixed;fillColor=#663300;" vertex="1" parent="1">
          <mxGeometry x="450" y="230" width="60" height="60" as="geometry" />
        </mxCell>
        <mxCell id="WoPcIAXv2s5pRwGK4_qz-55" style="edgeStyle=orthogonalEdgeStyle;rounded=0;orthogonalLoop=1;jettySize=auto;html=1;" edge="1" parent="1" source="WoPcIAXv2s5pRwGK4_qz-54" target="WoPcIAXv2s5pRwGK4_qz-2">
          <mxGeometry relative="1" as="geometry" />
        </mxCell>
        <mxCell id="WoPcIAXv2s5pRwGK4_qz-54" value="&lt;font style=&quot;font-size: 48px;&quot;&gt;str1&lt;/font&gt;" style="ellipse;whiteSpace=wrap;html=1;aspect=fixed;" vertex="1" parent="1">
          <mxGeometry x="-700" y="220" width="80" height="80" as="geometry" />
        </mxCell>
        <mxCell id="WoPcIAXv2s5pRwGK4_qz-65" value="" style="edgeStyle=orthogonalEdgeStyle;rounded=0;orthogonalLoop=1;jettySize=auto;html=1;" edge="1" parent="1" source="WoPcIAXv2s5pRwGK4_qz-57" target="WoPcIAXv2s5pRwGK4_qz-2">
          <mxGeometry relative="1" as="geometry" />
        </mxCell>
        <mxCell id="WoPcIAXv2s5pRwGK4_qz-68" style="edgeStyle=orthogonalEdgeStyle;rounded=0;orthogonalLoop=1;jettySize=auto;html=1;entryX=0.5;entryY=1;entryDx=0;entryDy=0;" edge="1" parent="1" source="WoPcIAXv2s5pRwGK4_qz-57" target="WoPcIAXv2s5pRwGK4_qz-41">
          <mxGeometry relative="1" as="geometry" />
        </mxCell>
        <mxCell id="WoPcIAXv2s5pRwGK4_qz-57" value="&lt;font style=&quot;font-size: 48px;&quot;&gt;a&lt;/font&gt;" style="whiteSpace=wrap;html=1;aspect=fixed;" vertex="1" parent="1">
          <mxGeometry x="-450" y="400" width="60" height="60" as="geometry" />
        </mxCell>
        <mxCell id="WoPcIAXv2s5pRwGK4_qz-67" style="edgeStyle=orthogonalEdgeStyle;rounded=0;orthogonalLoop=1;jettySize=auto;html=1;entryX=0.5;entryY=1;entryDx=0;entryDy=0;" edge="1" parent="1" source="WoPcIAXv2s5pRwGK4_qz-58" target="WoPcIAXv2s5pRwGK4_qz-4">
          <mxGeometry relative="1" as="geometry" />
        </mxCell>
        <mxCell id="WoPcIAXv2s5pRwGK4_qz-69" style="edgeStyle=orthogonalEdgeStyle;rounded=0;orthogonalLoop=1;jettySize=auto;html=1;entryX=0.5;entryY=1;entryDx=0;entryDy=0;" edge="1" parent="1" source="WoPcIAXv2s5pRwGK4_qz-58" target="WoPcIAXv2s5pRwGK4_qz-40">
          <mxGeometry relative="1" as="geometry" />
        </mxCell>
        <mxCell id="WoPcIAXv2s5pRwGK4_qz-58" value="&lt;font style=&quot;font-size: 48px;&quot;&gt;b&lt;/font&gt;" style="whiteSpace=wrap;html=1;aspect=fixed;" vertex="1" parent="1">
          <mxGeometry x="-390" y="400" width="60" height="60" as="geometry" />
        </mxCell>
        <mxCell id="WoPcIAXv2s5pRwGK4_qz-62" style="edgeStyle=orthogonalEdgeStyle;rounded=0;orthogonalLoop=1;jettySize=auto;html=1;" edge="1" parent="1" source="WoPcIAXv2s5pRwGK4_qz-61" target="WoPcIAXv2s5pRwGK4_qz-57">
          <mxGeometry relative="1" as="geometry" />
        </mxCell>
        <mxCell id="WoPcIAXv2s5pRwGK4_qz-61" value="&lt;span style=&quot;font-size: 48px;&quot;&gt;s2&lt;/span&gt;" style="ellipse;whiteSpace=wrap;html=1;aspect=fixed;" vertex="1" parent="1">
          <mxGeometry x="-700" y="390" width="80" height="80" as="geometry" />
        </mxCell>
        <mxCell id="WoPcIAXv2s5pRwGK4_qz-63" value="&lt;font size=&quot;3&quot;&gt;如何找出循环节：&lt;br&gt;index:表示匹配到S2中的哪一个字符&lt;br&gt;s1cnt:表示使用了几个s1&lt;br&gt;s2cnt:表示匹配了几个s2&lt;br&gt;&lt;br&gt;我们使用一个hash表来存储上述几个数据的键值对，每次匹配完一个S1就将其存入hash表中，如果存入的hash表中已经存在值说明出现了循环节，循环节的长度为：s1cnt-之前存入的s1cnt个s1，s2cnt-之前存入的s2cnt个s2，目前就可以知道循环节中&lt;br&gt;&lt;/font&gt;" style="text;strokeColor=none;align=center;fillColor=none;html=1;verticalAlign=middle;whiteSpace=wrap;rounded=0;" vertex="1" parent="1">
          <mxGeometry x="-670" y="530" width="350" height="240" as="geometry" />
        </mxCell>
        <mxCell id="WoPcIAXv2s5pRwGK4_qz-70" value="b" style="whiteSpace=wrap;html=1;aspect=fixed;" vertex="1" parent="1">
          <mxGeometry x="-600" y="920" width="60" height="60" as="geometry" />
        </mxCell>
        <mxCell id="WoPcIAXv2s5pRwGK4_qz-71" value="a" style="whiteSpace=wrap;html=1;aspect=fixed;" vertex="1" parent="1">
          <mxGeometry x="-540" y="920" width="60" height="60" as="geometry" />
        </mxCell>
        <mxCell id="WoPcIAXv2s5pRwGK4_qz-72" value="b" style="whiteSpace=wrap;html=1;aspect=fixed;" vertex="1" parent="1">
          <mxGeometry x="-480" y="920" width="60" height="60" as="geometry" />
        </mxCell>
        <mxCell id="WoPcIAXv2s5pRwGK4_qz-73" value="a" style="whiteSpace=wrap;html=1;aspect=fixed;" vertex="1" parent="1">
          <mxGeometry x="-420" y="920" width="60" height="60" as="geometry" />
        </mxCell>
        <mxCell id="WoPcIAXv2s5pRwGK4_qz-75" value="b" style="whiteSpace=wrap;html=1;aspect=fixed;" vertex="1" parent="1">
          <mxGeometry x="-360" y="920" width="60" height="60" as="geometry" />
        </mxCell>
        <mxCell id="WoPcIAXv2s5pRwGK4_qz-76" value="a" style="whiteSpace=wrap;html=1;aspect=fixed;" vertex="1" parent="1">
          <mxGeometry x="-300" y="920" width="60" height="60" as="geometry" />
        </mxCell>
        <mxCell id="WoPcIAXv2s5pRwGK4_qz-77" value="b" style="whiteSpace=wrap;html=1;aspect=fixed;" vertex="1" parent="1">
          <mxGeometry x="-240" y="920" width="60" height="60" as="geometry" />
        </mxCell>
        <mxCell id="WoPcIAXv2s5pRwGK4_qz-78" value="a" style="whiteSpace=wrap;html=1;aspect=fixed;" vertex="1" parent="1">
          <mxGeometry x="-180" y="920" width="60" height="60" as="geometry" />
        </mxCell>
        <mxCell id="WoPcIAXv2s5pRwGK4_qz-79" value="b" style="whiteSpace=wrap;html=1;aspect=fixed;" vertex="1" parent="1">
          <mxGeometry x="-120" y="920" width="60" height="60" as="geometry" />
        </mxCell>
        <mxCell id="WoPcIAXv2s5pRwGK4_qz-80" value="a" style="whiteSpace=wrap;html=1;aspect=fixed;" vertex="1" parent="1">
          <mxGeometry x="-60" y="920" width="60" height="60" as="geometry" />
        </mxCell>
        <mxCell id="WoPcIAXv2s5pRwGK4_qz-81" value="b" style="whiteSpace=wrap;html=1;aspect=fixed;" vertex="1" parent="1">
          <mxGeometry y="920" width="60" height="60" as="geometry" />
        </mxCell>
        <mxCell id="WoPcIAXv2s5pRwGK4_qz-82" value="a" style="whiteSpace=wrap;html=1;aspect=fixed;" vertex="1" parent="1">
          <mxGeometry x="60" y="920" width="60" height="60" as="geometry" />
        </mxCell>
        <mxCell id="WoPcIAXv2s5pRwGK4_qz-83" value="b" style="whiteSpace=wrap;html=1;aspect=fixed;" vertex="1" parent="1">
          <mxGeometry x="120" y="920" width="60" height="60" as="geometry" />
        </mxCell>
        <mxCell id="WoPcIAXv2s5pRwGK4_qz-84" value="a" style="whiteSpace=wrap;html=1;aspect=fixed;" vertex="1" parent="1">
          <mxGeometry x="180" y="920" width="60" height="60" as="geometry" />
        </mxCell>
        <mxCell id="WoPcIAXv2s5pRwGK4_qz-85" value="b" style="whiteSpace=wrap;html=1;aspect=fixed;" vertex="1" parent="1">
          <mxGeometry x="240" y="920" width="60" height="60" as="geometry" />
        </mxCell>
        <mxCell id="WoPcIAXv2s5pRwGK4_qz-86" value="a" style="whiteSpace=wrap;html=1;aspect=fixed;" vertex="1" parent="1">
          <mxGeometry x="300" y="920" width="60" height="60" as="geometry" />
        </mxCell>
        <mxCell id="WoPcIAXv2s5pRwGK4_qz-87" value="b" style="whiteSpace=wrap;html=1;aspect=fixed;" vertex="1" parent="1">
          <mxGeometry x="360" y="920" width="60" height="60" as="geometry" />
        </mxCell>
        <mxCell id="WoPcIAXv2s5pRwGK4_qz-88" value="a" style="whiteSpace=wrap;html=1;aspect=fixed;" vertex="1" parent="1">
          <mxGeometry x="420" y="920" width="60" height="60" as="geometry" />
        </mxCell>
        <mxCell id="WoPcIAXv2s5pRwGK4_qz-89" value="b" style="whiteSpace=wrap;html=1;aspect=fixed;" vertex="1" parent="1">
          <mxGeometry x="480" y="920" width="60" height="60" as="geometry" />
        </mxCell>
        <mxCell id="WoPcIAXv2s5pRwGK4_qz-90" value="a" style="whiteSpace=wrap;html=1;aspect=fixed;" vertex="1" parent="1">
          <mxGeometry x="540" y="920" width="60" height="60" as="geometry" />
        </mxCell>
        <mxCell id="WoPcIAXv2s5pRwGK4_qz-91" value="b" style="whiteSpace=wrap;html=1;aspect=fixed;" vertex="1" parent="1">
          <mxGeometry x="600" y="920" width="60" height="60" as="geometry" />
        </mxCell>
        <mxCell id="WoPcIAXv2s5pRwGK4_qz-92" value="a" style="whiteSpace=wrap;html=1;aspect=fixed;" vertex="1" parent="1">
          <mxGeometry x="660" y="920" width="60" height="60" as="geometry" />
        </mxCell>
        <mxCell id="WoPcIAXv2s5pRwGK4_qz-93" value="b" style="whiteSpace=wrap;html=1;aspect=fixed;" vertex="1" parent="1">
          <mxGeometry x="720" y="920" width="60" height="60" as="geometry" />
        </mxCell>
        <mxCell id="WoPcIAXv2s5pRwGK4_qz-94" value="a" style="whiteSpace=wrap;html=1;aspect=fixed;" vertex="1" parent="1">
          <mxGeometry x="780" y="920" width="60" height="60" as="geometry" />
        </mxCell>
        <mxCell id="WoPcIAXv2s5pRwGK4_qz-95" value="b" style="whiteSpace=wrap;html=1;aspect=fixed;" vertex="1" parent="1">
          <mxGeometry x="840" y="920" width="60" height="60" as="geometry" />
        </mxCell>
        <mxCell id="WoPcIAXv2s5pRwGK4_qz-96" value="a" style="whiteSpace=wrap;html=1;aspect=fixed;" vertex="1" parent="1">
          <mxGeometry x="900" y="920" width="60" height="60" as="geometry" />
        </mxCell>
        <mxCell id="WoPcIAXv2s5pRwGK4_qz-97" value="b" style="whiteSpace=wrap;html=1;aspect=fixed;" vertex="1" parent="1">
          <mxGeometry x="960" y="920" width="60" height="60" as="geometry" />
        </mxCell>
        <mxCell id="WoPcIAXv2s5pRwGK4_qz-98" value="a" style="whiteSpace=wrap;html=1;aspect=fixed;" vertex="1" parent="1">
          <mxGeometry x="1020" y="920" width="60" height="60" as="geometry" />
        </mxCell>
        <mxCell id="WoPcIAXv2s5pRwGK4_qz-99" value="b" style="whiteSpace=wrap;html=1;aspect=fixed;" vertex="1" parent="1">
          <mxGeometry x="1080" y="920" width="60" height="60" as="geometry" />
        </mxCell>
        <mxCell id="WoPcIAXv2s5pRwGK4_qz-100" value="a" style="whiteSpace=wrap;html=1;aspect=fixed;" vertex="1" parent="1">
          <mxGeometry x="1140" y="920" width="60" height="60" as="geometry" />
        </mxCell>
        <mxCell id="WoPcIAXv2s5pRwGK4_qz-101" value="b" style="whiteSpace=wrap;html=1;aspect=fixed;" vertex="1" parent="1">
          <mxGeometry x="1200" y="920" width="60" height="60" as="geometry" />
        </mxCell>
        <mxCell id="WoPcIAXv2s5pRwGK4_qz-102" value="a" style="whiteSpace=wrap;html=1;aspect=fixed;" vertex="1" parent="1">
          <mxGeometry x="1260" y="920" width="60" height="60" as="geometry" />
        </mxCell>
        <mxCell id="WoPcIAXv2s5pRwGK4_qz-103" value="b" style="whiteSpace=wrap;html=1;aspect=fixed;" vertex="1" parent="1">
          <mxGeometry x="1320" y="920" width="60" height="60" as="geometry" />
        </mxCell>
        <mxCell id="WoPcIAXv2s5pRwGK4_qz-104" value="a" style="whiteSpace=wrap;html=1;aspect=fixed;" vertex="1" parent="1">
          <mxGeometry x="1380" y="920" width="60" height="60" as="geometry" />
        </mxCell>
        <mxCell id="WoPcIAXv2s5pRwGK4_qz-105" value="b" style="whiteSpace=wrap;html=1;aspect=fixed;" vertex="1" parent="1">
          <mxGeometry x="1440" y="920" width="60" height="60" as="geometry" />
        </mxCell>
        <mxCell id="WoPcIAXv2s5pRwGK4_qz-106" value="a" style="whiteSpace=wrap;html=1;aspect=fixed;" vertex="1" parent="1">
          <mxGeometry x="1500" y="920" width="60" height="60" as="geometry" />
        </mxCell>
        <mxCell id="WoPcIAXv2s5pRwGK4_qz-107" value="b" style="whiteSpace=wrap;html=1;aspect=fixed;" vertex="1" parent="1">
          <mxGeometry x="1560" y="920" width="60" height="60" as="geometry" />
        </mxCell>
        <mxCell id="WoPcIAXv2s5pRwGK4_qz-108" value="a" style="whiteSpace=wrap;html=1;aspect=fixed;" vertex="1" parent="1">
          <mxGeometry x="1620" y="920" width="60" height="60" as="geometry" />
        </mxCell>
        <mxCell id="WoPcIAXv2s5pRwGK4_qz-109" value="b" style="whiteSpace=wrap;html=1;aspect=fixed;" vertex="1" parent="1">
          <mxGeometry x="1680" y="920" width="60" height="60" as="geometry" />
        </mxCell>
        <mxCell id="WoPcIAXv2s5pRwGK4_qz-110" value="a" style="whiteSpace=wrap;html=1;aspect=fixed;" vertex="1" parent="1">
          <mxGeometry x="1740" y="920" width="60" height="60" as="geometry" />
        </mxCell>
        <mxCell id="WoPcIAXv2s5pRwGK4_qz-111" value="b" style="whiteSpace=wrap;html=1;aspect=fixed;" vertex="1" parent="1">
          <mxGeometry x="1800" y="920" width="60" height="60" as="geometry" />
        </mxCell>
        <mxCell id="WoPcIAXv2s5pRwGK4_qz-112" value="a" style="whiteSpace=wrap;html=1;aspect=fixed;" vertex="1" parent="1">
          <mxGeometry x="1860" y="920" width="60" height="60" as="geometry" />
        </mxCell>
        <mxCell id="WoPcIAXv2s5pRwGK4_qz-113" value="b" style="whiteSpace=wrap;html=1;aspect=fixed;" vertex="1" parent="1">
          <mxGeometry x="1920" y="920" width="60" height="60" as="geometry" />
        </mxCell>
        <mxCell id="WoPcIAXv2s5pRwGK4_qz-114" value="a" style="whiteSpace=wrap;html=1;aspect=fixed;" vertex="1" parent="1">
          <mxGeometry x="1980" y="920" width="60" height="60" as="geometry" />
        </mxCell>
        <mxCell id="WoPcIAXv2s5pRwGK4_qz-115" value="b" style="whiteSpace=wrap;html=1;aspect=fixed;" vertex="1" parent="1">
          <mxGeometry x="2040" y="920" width="60" height="60" as="geometry" />
        </mxCell>
        <mxCell id="WoPcIAXv2s5pRwGK4_qz-116" value="a" style="whiteSpace=wrap;html=1;aspect=fixed;" vertex="1" parent="1">
          <mxGeometry x="2100" y="920" width="60" height="60" as="geometry" />
        </mxCell>
        <mxCell id="WoPcIAXv2s5pRwGK4_qz-117" value="b" style="whiteSpace=wrap;html=1;aspect=fixed;" vertex="1" parent="1">
          <mxGeometry x="2160" y="920" width="60" height="60" as="geometry" />
        </mxCell>
        <mxCell id="WoPcIAXv2s5pRwGK4_qz-118" value="a" style="whiteSpace=wrap;html=1;aspect=fixed;" vertex="1" parent="1">
          <mxGeometry x="2220" y="920" width="60" height="60" as="geometry" />
        </mxCell>
      </root>
    </mxGraphModel>
  </diagram>
</mxfile>
